<svg width="183" height="48" viewBox="0 0 183 48" fill="none" xmlns="http://www.w3.org/2000/svg">
<g clip-path="url(#clip0_218_1076)">
<path d="M16.0137 30.4535L14.856 29.1774C13.3715 30.7725 11.9723 31.6976 9.83433 31.6976C6.41792 31.6976 3.81831 28.5315 3.81831 24.4642C3.81831 20.3968 6.38951 17.2866 9.83433 17.2866C11.9439 17.2866 13.4071 18.2835 14.721 19.6791L15.9214 18.2356C14.3659 16.5927 12.6826 15.4683 9.86279 15.4683C5.28858 15.4683 2 19.5275 2 24.512C2 29.4965 5.30989 33.516 9.79176 33.516C12.6115 33.516 14.3872 32.2958 16.0067 30.4455L16.0137 30.4535ZM19.21 33.2129H20.9644V15.7633H19.21V33.2129ZM38.3662 33.2129L33.5931 26.0832C36.0365 25.5886 37.8122 23.8899 37.8122 20.9711C37.8122 17.8288 35.6174 15.7554 32.1939 15.7554H25.5102V33.2049H27.2646V26.4261H31.7038L36.214 33.2049H38.3662V33.2129ZM36.0365 21.0429C36.0365 23.3078 34.3673 24.6556 32.0376 24.6556H27.2646V17.5896H32.0589C34.5662 17.5896 36.0365 18.8895 36.0365 21.0588V21.0429ZM53.8289 30.4615L52.6712 29.1855C51.1867 30.7804 49.7874 31.7056 47.6495 31.7056C44.233 31.7056 41.6334 28.5394 41.6334 24.4721C41.6334 20.4048 44.2118 17.2945 47.6495 17.2945C49.759 17.2945 51.2222 18.2914 52.5362 19.6871L53.7366 18.2436C52.181 16.6007 50.4977 15.4762 47.6708 15.4762C43.0966 15.4762 39.808 19.5356 39.808 24.528C39.808 29.5204 43.1179 33.5319 47.5998 33.5319C50.4195 33.5319 52.1953 32.3117 53.8147 30.4615H53.8289ZM63.5668 15.6517H61.9261L54.8446 33.2289H56.6416L58.4812 28.6113H66.9407L68.7589 33.2289H70.6483L63.5668 15.6517ZM66.2516 26.8487H59.1702L62.7215 17.9485L66.2516 26.8487ZM86.6226 24.4801C86.6226 19.5436 83.2488 15.7793 78.3618 15.7793H72.9638V33.2289H78.3618C83.2488 33.2289 86.6226 29.4167 86.6226 24.4801ZM84.7967 24.528C84.7967 28.4199 82.2895 31.4105 78.3545 31.4105H74.7113V17.5896H78.3545C82.2829 17.5896 84.7967 20.6281 84.7967 24.52V24.528ZM100.885 15.7713H89.6482V33.2209H100.991V31.4265H91.4024V25.3175H99.8834V23.5231H91.4024V17.5657H100.885V15.7713ZM115.858 29.7596L106.07 15.7713H104.429V33.2209H106.141V18.9055L116.177 33.2129H117.577V15.7633H115.864V29.7517L115.858 29.7596ZM134.588 30.4535L133.436 29.1774C131.952 30.7725 130.553 31.6976 128.422 31.6976C124.999 31.6976 122.406 28.5315 122.406 24.4642C122.406 20.3968 124.984 17.2866 128.422 17.2866C130.532 17.2866 131.995 18.2835 133.309 19.6791L134.509 18.2356C132.954 16.5927 131.27 15.4683 128.45 15.4683C123.877 15.4683 120.595 19.5275 120.595 24.52C120.595 29.5124 123.905 33.5239 128.387 33.5239C131.207 33.5239 132.983 32.3037 134.601 30.4535H134.588ZM148.871 15.7713H137.634V33.2209H148.978V31.4265H139.389V25.3175H147.869V23.5231H139.389V17.5657H148.871V15.7713Z" fill="#B7B9BA"/>
<path d="M170.752 23.1317H178.175L176.876 19.4525L173.785 19.1779L174.641 13.0669L172.987 8.35229L170.752 23.1317Z" fill="#B7B9BA"/>
<path d="M170.752 7.0857L168.772 5.61511L170.084 15.468L170.752 7.0857Z" fill="#B7B9BA"/>
<path d="M167.782 43.9321L170.751 42.3729L169.941 33.5319L167.782 43.9321Z" fill="#B7B9BA"/>
<path d="M164.947 5.06787L162.211 9.89488L164.824 18.7642L157.81 17.8844L154.915 23.1236L162.338 23.1275L169.761 23.1315L164.947 5.06787Z" fill="#B7B9BA"/>
<path d="M171.741 25.3212L178.175 25.329L177.049 29.0003L174.37 29.2749L175.112 35.3859L173.672 40.1005L171.741 25.3212Z" fill="#B7B9BA"/>
<path d="M164.947 43.9322L162.364 39.21L164.817 29.8146L157.166 29.7084L154.915 25.3212H169.761L164.947 43.9322Z" fill="#B7B9BA"/>
<path d="M178.704 13.4949C178.856 13.4949 178.955 13.3703 178.955 13.1595C178.955 12.9488 178.856 12.8435 178.704 12.8435H178.453V13.5044H178.704V13.4949ZM178.157 12.5561H178.765C179.061 12.5561 179.258 12.7956 179.258 13.1595C179.258 13.4661 179.099 13.6481 178.97 13.6864C178.97 13.6864 178.985 13.7152 179.023 13.8109L179.327 14.539H179.001L178.712 13.7727H178.461V14.539H178.165V12.5561H178.157ZM178.666 15.1137C179.334 15.1137 179.851 14.4336 179.851 13.5524C179.851 12.671 179.334 11.9909 178.666 11.9909C177.998 11.9909 177.489 12.671 177.489 13.5524C177.489 14.4336 177.998 15.1137 178.666 15.1137ZM178.666 11.6365C179.494 11.6365 180.155 12.489 180.155 13.5524C180.155 14.6156 179.494 15.4682 178.666 15.4682C177.839 15.4682 177.186 14.6156 177.186 13.5524C177.186 12.489 177.846 11.6365 178.666 11.6365Z" fill="#B7B9BA"/>
</g>
<defs>
<clipPath id="clip0_218_1076">
<rect width="178.176" height="39" fill="white" transform="translate(2 5)"/>
</clipPath>
</defs>
</svg>
