<svg width="183" height="48" viewBox="0 0 183 48" fill="none" xmlns="http://www.w3.org/2000/svg">
<path d="M165.44 23.4564H161.947C161.717 23.4564 161.58 23.2721 161.58 23.0878V19.5855C161.58 19.355 161.763 19.2168 161.947 19.2168H165.44C165.67 19.2168 165.808 19.4011 165.808 19.5855V23.0878C165.808 23.2721 165.623 23.4564 165.44 23.4564Z" fill="black"/>
<path d="M165.44 31.5669H161.947C161.717 31.5669 161.58 31.3825 161.58 31.1982V27.6959C161.58 27.4654 161.763 27.3271 161.947 27.3271H165.44C165.67 27.3271 165.808 27.5115 165.808 27.6959V31.1982C165.808 31.3825 165.623 31.5669 165.44 31.5669Z" fill="black"/>
<path d="M64.6568 24.977C64.6568 31.613 59.6935 35.5761 53.5813 35.5761C47.515 35.5761 42.5059 31.613 42.5059 24.977C42.5059 18.3411 47.515 14.3779 53.5813 14.3779C59.7394 14.3779 64.6568 18.3411 64.6568 24.977ZM45.5389 24.977C45.5389 29.954 49.1695 32.9955 53.5813 32.9955C58.039 32.9955 61.6237 30.0001 61.6237 24.977C61.6237 19.9079 58.085 16.9586 53.5813 16.9586C49.2154 16.9586 45.5389 19.9079 45.5389 24.977Z" fill="black"/>
<path d="M92.0472 14.7007C92.231 14.7007 92.4608 14.885 92.4608 15.1154V34.839C92.4608 35.0232 92.277 35.2536 92.0472 35.2536H89.8413C89.6575 35.2536 89.4277 35.0694 89.4277 34.839V20.2306H89.3358L80.8798 32.673L72.4238 20.2306H72.3319V34.839C72.3319 35.0232 72.148 35.2536 71.9183 35.2536H69.7123C69.5285 35.2536 69.2988 35.0694 69.2988 34.839V15.1154C69.2988 14.9311 69.4825 14.7007 69.7123 14.7007H71.091C71.3208 14.7007 71.5506 14.7928 71.7344 15.0233L80.8338 27.9726H80.8798L89.9792 15.0233C90.163 14.7928 90.3928 14.7007 90.6226 14.7007H92.0472Z" fill="black"/>
<path d="M98.7105 35.2536C98.5267 35.2536 98.2969 35.0694 98.2969 34.839V15.1154C98.2969 14.9311 98.4807 14.7007 98.7105 14.7007H107.12C111.946 14.7007 115.439 17.4657 115.439 22.12C115.439 26.7283 111.9 29.4933 107.12 29.4933H101.33V34.7928C101.33 34.9772 101.146 35.2076 100.916 35.2076H98.7105V35.2536ZM101.33 17.3274V26.9588H107.075C110.2 26.9588 112.451 25.1615 112.451 22.1661C112.451 19.1707 110.246 17.3274 107.075 17.3274H101.33Z" fill="black"/>
<path d="M122.424 32.673H133.683C133.867 32.673 134.143 32.9495 134.143 33.1338V34.7928C134.143 34.9772 133.867 35.2536 133.683 35.2536H119.804C119.62 35.2536 119.391 35.0694 119.391 34.839V15.1154C119.391 14.9311 119.574 14.7007 119.804 14.7007H122.01C122.194 14.7007 122.424 14.885 122.424 15.1154V32.673Z" fill="black"/>
<path d="M149.355 24.7927L157.765 34.7926C157.857 34.8849 157.903 34.977 157.903 35.0692C157.903 35.1613 157.857 35.2535 157.719 35.2535H154.916C154.502 35.2535 154.456 35.2535 154.088 34.8388L147.47 26.8663L140.853 34.8388C140.531 35.2535 140.44 35.2535 140.025 35.2535H137.314C137.176 35.2535 137.131 35.1613 137.131 35.0692C137.131 35.023 137.176 34.8849 137.268 34.7926L145.678 24.7927L137.59 15.2074C137.498 15.1152 137.452 15.0231 137.452 14.9309C137.452 14.8387 137.498 14.7466 137.636 14.7466H140.485C140.899 14.7466 140.944 14.7466 141.312 15.1613L147.47 22.7189L153.859 15.1613C154.18 14.7466 154.272 14.7466 154.686 14.7466H157.397C157.535 14.7466 157.581 14.8387 157.581 14.9309C157.581 14.977 157.535 15.1152 157.444 15.2074L149.355 24.7927Z" fill="black"/>
<path d="M35.98 32.6728C37.9101 30.8757 39.105 28.2489 39.105 24.977C39.105 18.3411 34.1877 14.3779 28.0295 14.3779C21.9633 14.3779 17 18.3411 17 24.977C17 31.613 21.9633 35.5761 28.0755 35.5761C30.0516 35.5761 31.8899 35.1613 33.4983 34.378L36.2556 37.8803C36.3935 38.0185 36.6693 38.0645 36.8071 37.9263L38.5075 36.5899C38.6914 36.4516 38.6914 36.1751 38.5994 36.0369L35.98 32.6728ZM28.0755 32.9955C23.6637 32.9955 20.0331 30.0001 20.0331 24.977C20.0331 19.9079 23.6637 16.9586 28.0755 16.9586C32.5792 16.9586 36.1178 19.9079 36.1178 24.977C36.1178 30.0001 32.5333 32.9955 28.0755 32.9955Z" fill="black"/>
</svg>
