<svg width="183" height="48" viewBox="0 0 183 48" fill="none" xmlns="http://www.w3.org/2000/svg">
<g opacity="0.3">
<g clip-path="url(#clip0_185_3130)">
<mask id="mask0_185_3130" style="mask-type:luminance" maskUnits="userSpaceOnUse" x="17" y="3" width="150" height="43">
<path d="M17 3V46H166.001V3H17Z" fill="white"/>
</mask>
<g mask="url(#mask0_185_3130)">
<path d="M50.5145 31.0517L39.0268 37.6994L27.5383 31.0517V17.7566L39.0268 11.1094L50.5145 17.7566V31.0517ZM59.5266 23.7717L56.1824 21.9989C56.0359 20.9386 55.7943 19.909 55.4656 18.9188L57.9007 16.2199C57.0225 14.1535 55.8157 12.2612 54.3469 10.6074L50.5335 11.4284C49.9696 10.9257 49.3733 10.4589 48.7471 10.0326L48.8874 6.24294C46.8953 5.14569 44.7018 4.37145 42.3764 3.98865L39.9855 7.06933C39.6679 7.05203 39.3481 7.04264 39.0264 7.04264C38.7044 7.04264 38.3847 7.05203 38.0673 7.06933L35.6762 3.98865C33.3507 4.37145 31.1573 5.14569 29.1652 6.24269L29.3053 10.0324C28.6791 10.4587 28.0828 10.9255 27.5191 11.4281L23.7054 10.6072C22.2367 12.2607 21.0298 14.1532 20.1515 16.2197L22.5868 18.9188C22.2583 19.9088 22.0165 20.9383 21.8699 21.9986L18.5256 23.7717C18.5218 23.9362 18.5195 24.1014 18.5195 24.267C18.5195 26.241 18.7977 28.1497 19.3162 29.9562L22.7785 30.4371C23.2677 31.76 23.9134 33.0072 24.6926 34.1556L23.3362 37.4993C24.5958 38.9976 26.0645 40.313 27.6984 41.4001L30.5993 39.5752C31.9978 40.357 33.5149 40.9511 35.1176 41.322L36.1795 44.6214C37.1101 44.7504 38.06 44.8198 39.0264 44.8198C39.9924 44.8198 40.9427 44.7512 41.8732 44.6214L42.9351 41.322C44.5381 40.9511 46.0552 40.357 47.4535 39.5752L50.3544 41.4001C51.9882 40.313 53.457 38.9976 54.7165 37.4993L53.3604 34.1556C54.1395 33.0072 54.7851 31.76 55.274 30.4371L58.7366 29.9562C59.2551 28.1497 59.5333 26.241 59.5333 24.267C59.5328 24.1014 59.5306 23.9362 59.5266 23.7717Z" fill="#030303"/>
<path d="M45.4026 17.5652L36.834 22.5233L39.0185 23.7876L47.5872 18.8293L45.4026 17.5652Z" fill="#030303"/>
<path d="M42.2106 15.7183L33.6416 20.6763L35.8266 21.9409L44.3952 16.9826L42.2106 15.7183Z" fill="#030303"/>
<path d="M39.0188 13.8714L30.4502 18.8295L32.6353 20.0938L41.2037 15.1357L39.0188 13.8714Z" fill="#030303"/>
<path d="M41.7143 33.3178V23.4014L39.5293 24.6657V34.5825L41.7143 33.3178Z" fill="#030303"/>
<path d="M38.5228 34.582V24.6657L36.3379 23.4019V33.3177L38.5228 34.582Z" fill="#030303"/>
<path d="M44.9065 31.4709V21.5546L42.7217 22.8189V32.7354L44.9065 31.4709Z" fill="#030303"/>
<path d="M48.0979 29.6242V19.7074L45.9131 20.9717V30.8882L48.0979 29.6242Z" fill="#030303"/>
<path d="M35.3312 32.7358V22.8192L33.1465 21.5545V31.4709L35.3312 32.7358Z" fill="#030303"/>
<path d="M32.1391 30.8882V20.9717L29.9541 19.7074V29.6242L32.1391 30.8882Z" fill="#030303"/>
<path d="M79.5384 33.8105C76.5663 33.8105 74.3023 32.9822 72.7457 31.325C71.1893 29.6688 70.4111 27.3154 70.4111 24.2659C70.4111 22.7502 70.6486 21.3974 71.1232 20.2075C71.5981 19.0176 72.2486 18.0128 73.0753 17.1933C73.9018 16.3738 74.8866 15.7523 76.0297 15.3295C77.1728 14.9064 78.4126 14.6949 79.7492 14.6949C80.523 14.6949 81.2264 14.7522 81.8596 14.8671C82.4928 14.9818 83.0469 15.114 83.5215 15.2635C83.9964 15.4133 84.3919 15.5675 84.7083 15.7264C85.0249 15.885 85.2532 16.0083 85.3942 16.0963L84.2072 19.4276C83.6441 19.1281 82.9892 18.8725 82.2418 18.661C81.494 18.4495 80.646 18.3437 79.6962 18.3437C79.063 18.3437 78.4432 18.4495 77.8366 18.661C77.2298 18.8725 76.6933 19.2121 76.2275 19.6789C75.7612 20.1462 75.3874 20.7497 75.1063 21.49C74.8247 22.2302 74.6842 23.1291 74.6842 24.1868C74.6842 25.0328 74.7764 25.8217 74.9611 26.5531C75.1458 27.2846 75.4446 27.9147 75.8581 28.4435C76.2711 28.9724 76.8119 29.3915 77.4803 29.6994C78.1483 30.0081 78.9575 30.1622 79.9073 30.1622C80.505 30.1622 81.0415 30.1272 81.5162 30.0564C81.9911 29.9863 82.4132 29.9023 82.7826 29.8052C83.1519 29.7085 83.4771 29.5978 83.7585 29.4745C84.0398 29.3515 84.2948 29.2365 84.5238 29.1308L85.6578 32.4358C85.0776 32.7885 84.26 33.1058 83.2047 33.3875C82.1501 33.669 80.9276 33.8105 79.5384 33.8105Z" fill="#030303"/>
<path d="M98.1568 22.6332C98.8965 21.385 99.6004 20.1373 100.27 18.8891C100.939 17.6411 101.555 16.3842 102.119 15.1184H106.656C105.654 17.0927 104.616 19.0047 103.543 20.8557C102.47 22.7062 101.336 24.5661 100.14 26.4342V33.4404H96.0247V26.487C94.829 24.6187 93.6904 22.7504 92.6092 20.8819C91.5277 19.0139 90.4857 17.0925 89.4834 15.1182H94.2577C94.8197 16.384 95.4255 17.6408 96.0757 18.8888C96.7249 20.1371 97.419 21.385 98.1568 22.6332Z" fill="#030303"/>
<path d="M118.58 33.8105C115.608 33.8105 113.344 32.9822 111.787 31.325C110.231 29.6688 109.453 27.3154 109.453 24.2659C109.453 22.7502 109.691 21.3974 110.165 20.2075C110.64 19.0176 111.29 18.0128 112.117 17.1933C112.944 16.3738 113.928 15.7523 115.072 15.3295C116.215 14.9064 117.455 14.6949 118.791 14.6949C119.565 14.6949 120.268 14.7522 120.902 14.8671C121.535 14.9818 122.089 15.114 122.564 15.2635C123.039 15.4133 123.434 15.5675 123.751 15.7264C124.067 15.885 124.295 16.0083 124.437 16.0963L123.249 19.4276C122.687 19.1281 122.031 18.8725 121.284 18.661C120.536 18.4495 119.688 18.3437 118.738 18.3437C118.106 18.3437 117.486 18.4495 116.879 18.661C116.272 18.8725 115.736 19.2121 115.27 19.6789C114.804 20.1462 114.43 20.7497 114.149 21.49C113.867 22.2302 113.727 23.1291 113.727 24.1868C113.727 25.0328 113.82 25.8217 114.004 26.5531C114.189 27.2846 114.488 27.9147 114.901 28.4435C115.314 28.9724 115.855 29.3915 116.523 29.6994C117.191 30.0081 118.001 30.1622 118.95 30.1622C119.548 30.1622 120.084 30.1272 120.559 30.0564C121.034 29.9863 121.456 29.9023 121.825 29.8052C122.194 29.7085 122.52 29.5978 122.801 29.4745C123.082 29.3515 123.337 29.2365 123.566 29.1308L124.7 32.4358C124.12 32.7885 123.302 33.1058 122.247 33.3875C121.192 33.669 119.969 33.8105 118.58 33.8105Z" fill="#030303"/>
<path d="M142.083 29.8975V33.4404H129.87V15.1182H133.985V29.8975H142.083Z" fill="#030303"/>
<path d="M147.253 33.4404V15.1182H159.598V18.5817H151.368V22.1773H158.675V25.5615H151.368V29.9767H160.205V33.4404H147.253Z" fill="#030303"/>
</g>
</g>
</g>
<defs>
<clipPath id="clip0_185_3130">
<rect width="149" height="43" fill="white" transform="translate(17 3)"/>
</clipPath>
</defs>
</svg>
