<svg width="397" height="300" viewBox="0 0 397 300" fill="none" xmlns="http://www.w3.org/2000/svg">
<g opacity="0.07">
<path fill-rule="evenodd" clip-rule="evenodd" d="M352.328 8.4593C383.583 -5.84667 420.767 -28.968 451.099 -12.7968C482.514 3.95143 475.243 52.1788 492.617 83.2522C506.176 107.504 539.065 121.051 541.415 148.737C543.762 176.408 510.34 194.341 504.343 221.456C495.192 262.836 533.355 322.755 497.821 345.85C463.119 368.405 426.695 304.579 385.75 298.536C351.637 293.501 311.771 337.07 285.668 314.537C258.419 291.015 291.427 243.49 281.801 208.805C273.918 180.398 235.42 164.772 235.925 135.296C236.429 105.863 264.386 85.2418 284.291 63.5535C304.43 41.6088 325.244 20.8557 352.328 8.4593Z" stroke="black"/>
<path opacity="0.95875" fill-rule="evenodd" clip-rule="evenodd" d="M353.139 13.4596C384.875 0.253141 422.843 -21.5564 452.592 -4.3365C483.403 13.4979 474.454 61.4422 490.733 93.103C503.438 117.813 535.834 132.5 537.215 160.251C538.596 187.987 504.568 204.742 497.629 231.632C487.039 272.667 523.088 333.881 486.77 355.723C451.301 377.053 417.127 311.995 376.418 304.526C342.501 298.303 301.139 340.454 275.838 317.025C249.427 292.566 284.074 246.222 275.664 211.221C268.777 182.557 230.847 165.597 232.381 136.157C233.912 106.759 262.572 87.1262 283.221 66.1458C304.114 44.9173 325.64 24.9032 353.139 13.4596Z" stroke="black"/>
<path opacity="0.9175" fill-rule="evenodd" clip-rule="evenodd" d="M353.776 18.4852C385.953 6.39432 424.659 -14.0769 453.789 4.17078C483.959 23.0696 473.343 70.6724 488.506 102.882C500.341 128.02 532.205 143.829 532.617 171.611C533.029 199.378 498.437 214.936 490.564 241.567C478.548 282.208 512.439 344.643 475.38 365.203C439.189 385.283 407.306 319.071 366.882 310.187C333.203 302.784 290.395 343.466 265.928 319.167C240.386 293.802 276.629 248.696 269.446 213.423C263.563 184.535 226.249 166.262 228.809 136.893C231.365 107.567 260.693 88.9461 282.062 68.6992C303.683 48.2127 325.894 28.9621 353.776 18.4852Z" stroke="black"/>
<path opacity="0.87625" fill-rule="evenodd" clip-rule="evenodd" d="M354.237 23.5299C386.816 12.5694 426.213 -6.53851 454.689 12.7147C484.181 32.6549 471.909 79.8582 485.94 112.577C496.89 138.114 528.183 155.025 527.625 182.804C527.068 210.569 491.954 224.91 483.156 251.249C469.729 291.446 501.42 355.026 463.667 374.281C426.797 393.085 397.244 325.801 357.155 315.511C323.755 306.938 279.553 346.101 255.949 320.963C231.308 294.722 269.103 250.908 263.155 215.406C258.284 186.331 221.63 166.766 225.214 137.504C228.792 108.286 258.752 90.6994 280.814 71.2105C303.137 51.4911 326.006 33.0274 354.237 23.5299Z" stroke="black"/>
<path opacity="0.835" fill-rule="evenodd" clip-rule="evenodd" d="M354.521 28.5877C387.464 18.7708 427.503 1.04951 455.29 21.2847C484.068 42.2421 470.157 88.9883 483.036 122.177C493.089 148.08 523.772 166.073 522.245 193.816C520.719 221.544 485.126 234.651 475.414 260.668C460.593 300.372 490.046 365.019 451.644 382.944C414.14 400.45 386.953 332.176 347.248 320.493C314.167 310.759 268.626 348.356 245.913 322.409C222.203 295.324 261.504 252.856 256.799 217.168C252.946 187.94 216.997 167.109 221.599 137.99C226.195 108.914 256.75 92.3838 279.479 73.6768C302.477 54.7485 325.976 37.0941 354.521 28.5877Z" stroke="black"/>
<path opacity="0.79375" fill-rule="evenodd" clip-rule="evenodd" d="M354.629 33.6523C387.894 24.9911 428.528 8.67791 455.591 29.8705C483.62 51.8195 468.086 98.0517 479.8 131.67C488.942 157.908 518.979 176.961 516.485 204.633C513.992 232.291 477.963 244.148 467.349 269.81C451.151 308.972 478.33 374.608 439.325 391.182C401.234 407.368 376.446 338.187 337.173 325.126C304.452 314.244 257.626 350.228 235.833 323.505C213.082 295.609 253.842 254.538 250.385 218.707C247.554 189.363 212.354 167.289 217.97 138.349C223.578 109.451 254.691 93.9974 278.059 76.095C301.703 57.9808 325.805 41.1573 354.629 33.6523Z" stroke="black"/>
<path opacity="0.7525" fill-rule="evenodd" clip-rule="evenodd" d="M354.56 38.7175C388.107 31.2225 429.285 16.3374 455.593 38.4616C482.839 61.3754 465.7 107.037 476.234 141.044C484.455 167.585 513.808 187.674 510.35 215.243C506.893 242.797 470.473 253.39 458.97 278.665C441.415 317.239 466.287 383.783 426.727 398.986C388.094 413.833 365.736 343.828 326.942 329.404C294.621 317.387 246.568 351.715 225.72 324.247C203.958 295.574 246.125 255.951 243.921 220.022C242.116 190.597 207.708 167.308 214.33 138.581C220.943 109.896 252.577 95.5381 276.555 78.4621C300.817 61.1842 325.492 45.2121 354.56 38.7175Z" stroke="black"/>
<path opacity="0.71125" fill-rule="evenodd" clip-rule="evenodd" d="M354.315 43.7773C388.103 37.4577 429.775 24.0187 455.295 47.0476C481.724 70.8982 463.003 115.934 472.343 150.288C479.633 177.099 508.267 198.201 503.849 225.632C499.433 253.049 462.665 262.364 450.287 287.223C431.396 325.16 453.93 392.531 413.864 406.344C374.736 419.834 354.835 349.092 316.569 333.323C284.687 320.185 235.465 352.815 215.588 324.637C194.839 295.222 238.364 257.094 237.416 221.11C236.638 191.64 203.064 167.164 210.685 138.686C218.295 110.25 250.411 97.0041 274.97 80.7754C299.82 64.3547 325.037 49.2534 354.315 43.7773Z" stroke="black"/>
<path opacity="0.67" fill-rule="evenodd" clip-rule="evenodd" d="M353.893 48.8255C387.88 43.6888 429.997 31.7124 454.697 55.6179C480.278 80.3764 459.996 124.732 468.132 159.39C474.481 186.44 502.362 208.528 496.989 235.788C491.619 263.034 454.548 271.06 441.31 295.472C421.107 332.727 441.276 400.844 400.753 413.25C361.178 425.366 343.757 353.973 306.065 336.878C274.661 322.635 224.33 353.527 205.449 324.672C185.739 294.551 230.568 257.966 230.876 221.97C231.128 192.491 198.428 166.859 207.038 138.664C215.636 110.51 248.194 98.3937 273.305 83.0319C298.713 67.4884 324.442 53.2765 353.893 48.8255Z" stroke="black"/>
<path opacity="0.62875" fill-rule="evenodd" clip-rule="evenodd" d="M353.295 53.8558C387.441 49.9084 429.95 39.4092 453.8 64.1621C478.502 89.7983 456.685 133.419 463.605 168.34C469.007 195.595 496.1 218.642 489.779 245.699C483.461 272.741 446.133 279.468 432.051 303.403C410.56 339.93 428.34 408.709 387.408 419.694C347.434 430.421 332.516 358.463 295.443 340.063C264.555 324.733 213.177 353.85 195.314 324.354C176.668 293.563 222.747 258.565 224.31 222.602C225.591 193.149 193.805 166.392 203.394 138.514C212.969 110.678 245.931 99.705 271.563 85.2289C297.498 70.5817 323.706 57.2762 353.295 53.8558Z" stroke="black"/>
<path opacity="0.5875" fill-rule="evenodd" clip-rule="evenodd" d="M352.521 58.8622C386.785 56.1089 429.634 47.0996 452.606 72.6698C476.398 99.1525 453.072 141.985 458.77 177.126C463.217 204.553 489.489 228.532 482.227 255.352C474.97 282.157 437.429 287.577 422.52 311.006C399.768 346.761 415.137 416.118 373.846 425.668C333.523 434.994 321.125 362.559 284.716 342.876C254.382 326.478 202.019 353.784 185.197 323.682C167.637 292.259 214.909 258.89 217.726 223.004C220.034 193.614 189.202 165.763 199.758 138.238C210.298 110.752 243.623 100.936 269.744 87.3638C296.175 73.6306 322.832 61.2479 352.521 58.8622Z" stroke="black"/>
<path opacity="0.54625" fill-rule="evenodd" clip-rule="evenodd" d="M351.574 63.8385C385.912 62.2827 429.05 54.7743 451.116 81.1306C473.969 108.428 449.162 150.42 453.63 185.739C457.117 213.304 482.537 238.185 474.343 264.735C466.155 291.27 428.448 295.377 412.731 318.272C388.744 353.21 401.683 423.062 360.085 431.165C319.46 439.078 309.597 366.255 273.898 345.313C244.155 327.866 190.871 353.328 175.11 322.658C158.656 290.641 207.064 258.942 211.133 223.176C214.464 193.884 184.623 164.975 196.133 137.834C207.627 110.734 241.273 102.087 267.853 89.4339C294.746 76.6315 321.819 65.1867 351.574 63.8385Z" stroke="black"/>
<path opacity="0.505" fill-rule="evenodd" clip-rule="evenodd" d="M350.453 68.7788C384.825 68.4223 428.199 62.424 449.331 89.5343C471.218 117.612 444.96 158.713 448.193 194.166C450.716 221.837 475.252 247.59 466.137 273.837C457.027 300.071 419.2 302.86 402.693 325.191C377.502 359.272 387.995 429.533 346.139 436.178C305.263 442.669 297.948 369.546 263.002 347.371C233.886 328.896 179.745 352.483 165.064 321.282C149.738 288.711 199.223 258.72 204.537 223.118C208.889 193.96 180.075 164.027 192.525 137.305C204.957 110.622 238.885 103.154 265.89 91.4368C293.214 79.5807 320.67 69.0877 350.453 68.7788Z" stroke="black"/>
<path opacity="0.46375" fill-rule="evenodd" clip-rule="evenodd" d="M349.161 73.6769C383.525 74.5203 427.081 70.0393 447.254 97.8706C468.148 126.695 440.472 166.855 442.465 202.399C444.021 230.141 467.643 256.735 457.618 282.648C447.598 308.547 409.697 310.014 392.421 331.756C366.055 364.937 374.09 435.521 332.028 440.702C290.95 445.762 286.191 372.428 252.04 349.048C223.586 329.568 168.656 351.251 155.072 319.556C140.893 286.47 191.394 258.225 197.947 222.829C203.314 193.842 175.562 162.921 188.937 136.649C202.293 110.416 236.461 104.138 263.858 93.3699C291.579 82.4746 319.385 72.9462 349.161 73.6769Z" stroke="black"/>
<path opacity="0.4225" fill-rule="evenodd" clip-rule="evenodd" d="M347.699 78.527C382.012 80.5691 425.698 77.6109 444.888 106.129C464.763 135.665 435.702 174.835 436.454 210.427C437.041 238.206 459.72 265.608 448.796 291.156C437.879 316.69 399.949 316.833 381.925 337.959C354.418 370.199 359.984 441.021 317.767 444.731C276.537 448.354 274.341 374.899 241.026 350.34C213.27 329.88 157.616 349.632 145.147 317.483C132.131 283.922 183.587 257.456 191.371 222.311C197.747 193.529 171.091 161.658 185.375 135.869C199.638 110.119 234.004 105.036 261.76 95.2309C289.845 85.3097 317.966 76.7575 347.699 78.527Z" stroke="black"/>
<path opacity="0.38125" fill-rule="evenodd" clip-rule="evenodd" d="M346.068 83.3231C380.289 86.5614 424.051 85.1297 442.234 114.3C461.066 144.512 430.656 182.643 430.166 218.24C429.783 246.023 451.492 274.2 439.683 299.351C427.881 324.488 389.97 323.307 371.219 343.791C342.604 375.052 345.695 446.025 303.374 448.259C262.043 450.441 262.412 376.954 229.974 351.248C202.949 329.831 146.639 347.629 135.3 315.064C123.463 281.07 175.811 256.416 184.818 221.564C192.194 193.021 166.666 160.24 181.842 134.966C196.995 109.728 231.517 105.848 259.599 97.0176C288.013 88.0826 316.415 80.517 346.068 83.3231Z" stroke="black"/>
<path opacity="0.34" fill-rule="evenodd" clip-rule="evenodd" d="M344.271 88.0593C378.358 92.49 422.144 92.5864 439.298 122.374C457.064 153.225 425.341 190.271 423.609 225.829C422.256 253.581 442.969 282.499 430.29 307.222C417.618 331.933 379.771 329.43 360.316 349.247C330.627 379.489 331.24 450.527 288.866 451.283C247.485 452.021 250.418 378.592 218.897 351.77C192.636 329.422 135.74 345.245 125.544 312.304C114.9 277.917 168.077 255.105 178.294 220.589C186.662 192.321 162.294 158.668 178.342 133.939C194.367 109.246 229.004 106.573 257.377 98.7278C286.085 90.7899 314.734 84.2201 344.271 88.0593Z" stroke="black"/>
<path opacity="0.29875" fill-rule="evenodd" clip-rule="evenodd" d="M342.309 92.7299C376.221 98.3475 419.977 99.972 436.081 130.34C452.759 161.792 419.764 197.709 416.791 233.185C414.471 260.873 434.161 290.496 420.627 314.761C407.1 339.014 369.364 335.192 349.23 354.318C318.503 383.506 316.636 454.522 274.262 453.799C232.88 453.092 238.374 379.81 207.809 351.904C182.343 328.654 124.93 342.481 115.889 309.204C106.452 274.467 160.393 253.525 171.809 219.386C181.158 191.427 157.979 156.945 174.881 132.791C191.758 108.672 226.467 107.209 255.096 100.359C284.064 93.4282 312.924 87.8622 342.309 92.7299Z" stroke="black"/>
<path opacity="0.2575" fill-rule="evenodd" clip-rule="evenodd" d="M340.186 97.3293C373.881 104.127 417.554 107.277 432.588 138.189C448.159 170.204 413.929 204.947 409.72 240.298C406.435 267.888 425.08 298.18 410.707 321.959C396.343 345.725 358.762 340.588 337.973 359C306.247 387.098 301.902 458.005 259.58 455.803C218.247 453.653 226.295 380.607 196.723 351.652C172.084 327.527 114.223 339.342 106.349 305.77C98.1305 270.724 152.769 251.677 165.369 217.958C175.688 190.342 153.727 155.072 171.461 131.523C189.17 108.007 223.909 107.757 252.759 101.91C281.951 95.9943 310.989 91.439 340.186 97.3293Z" stroke="black"/>
<path opacity="0.21625" fill-rule="evenodd" clip-rule="evenodd" d="M337.904 101.852C371.341 109.821 414.877 114.494 428.823 145.911C443.267 178.45 407.846 211.978 402.406 247.16C398.16 274.619 415.736 305.543 400.543 328.806C385.357 352.056 347.979 345.611 326.56 363.285C293.872 390.259 287.056 460.972 244.836 457.294C203.604 453.703 214.196 380.982 185.652 351.012C161.87 326.042 103.632 335.831 96.9349 302.005C89.9441 266.693 145.214 249.565 158.983 216.306C170.26 189.067 149.543 153.052 168.088 130.136C186.607 107.253 221.333 108.215 250.37 103.379C279.751 98.4852 308.93 94.946 337.904 101.852Z" stroke="black"/>
<path opacity="0.175" fill-rule="evenodd" clip-rule="evenodd" d="M335.465 106.292C368.603 115.423 411.95 121.613 424.791 153.498C438.091 186.521 401.521 218.792 394.857 253.763C389.655 281.056 406.141 312.575 390.145 335.293C374.157 357.999 337.027 350.254 315.004 367.17C281.395 392.987 272.115 463.418 230.049 458.27C188.967 453.242 202.091 380.935 174.61 349.987C151.714 324.202 93.1698 331.952 87.6576 297.913C81.9034 262.379 137.737 247.19 152.659 214.432C164.879 187.604 145.432 150.887 164.766 128.632C184.071 106.409 218.743 108.583 247.932 104.763C277.465 100.898 306.75 98.3791 335.465 106.292Z" stroke="black"/>
<path opacity="0.13375" fill-rule="evenodd" clip-rule="evenodd" d="M332.872 110.644C365.672 120.926 408.776 128.625 420.497 160.938C432.636 194.405 394.963 225.381 387.082 260.098C380.931 287.193 396.307 319.268 379.527 341.414C362.757 363.549 325.92 354.512 303.32 370.65C268.83 395.277 257.098 465.342 215.237 458.729C174.356 452.27 189.995 380.465 163.611 348.577C141.629 322.009 82.8496 327.711 78.5287 293.5C74.0182 257.787 130.348 244.556 146.404 212.338C159.553 185.953 141.399 148.58 161.498 127.013C181.567 105.478 216.142 108.86 245.446 106.061C275.096 103.229 304.451 101.734 332.872 110.644Z" stroke="black"/>
<path opacity="0.0925" fill-rule="evenodd" clip-rule="evenodd" d="M330.13 114.903C362.551 126.324 405.36 135.522 415.946 168.225C426.909 202.095 388.178 231.737 379.09 266.158C371.997 293.022 386.245 325.614 368.703 347.161C351.17 368.697 314.67 358.38 291.521 373.719C256.193 397.128 242.022 466.741 200.418 458.67C159.787 450.789 177.923 379.574 152.668 346.784C131.626 319.465 72.6837 323.112 69.5594 288.771C66.298 252.923 123.056 241.665 140.226 210.028C154.288 184.117 137.449 146.134 158.288 125.282C179.097 104.46 213.533 109.047 242.916 107.272C272.648 105.476 302.036 105.007 330.13 114.903Z" stroke="black"/>
<path opacity="0.05125" fill-rule="evenodd" clip-rule="evenodd" d="M327.24 119.064C359.243 131.609 401.705 142.296 411.143 175.348C420.918 209.58 381.176 237.852 370.892 271.935C362.866 298.536 375.967 331.605 357.684 352.527C339.41 373.437 303.293 361.853 279.622 376.375C243.499 398.537 226.908 467.612 185.61 458.095C145.279 448.8 165.889 378.261 141.794 344.61C121.719 316.573 62.6845 318.161 60.7606 283.732C58.7523 247.792 115.868 238.522 134.132 207.503C149.09 182.099 133.587 143.551 155.141 123.439C176.664 103.356 210.919 109.142 240.346 108.394C270.122 107.637 299.509 108.193 327.24 119.064Z" stroke="black"/>
<path opacity="0.01" fill-rule="evenodd" clip-rule="evenodd" d="M324.207 123.121C355.752 136.776 397.816 148.938 406.094 182.299C414.669 216.852 373.964 243.72 362.497 277.423C353.548 303.727 365.487 337.233 346.484 357.504C327.492 377.764 291.801 364.926 267.638 378.613C230.763 399.501 211.771 467.956 170.831 457.003C130.849 446.306 153.908 376.53 131.002 342.058C111.918 313.338 52.8642 312.865 52.1431 278.389C51.3902 242.401 108.795 235.13 128.13 204.767C143.966 179.901 129.817 140.835 152.06 121.487C174.271 102.168 208.303 109.146 237.739 109.425C267.523 109.708 296.873 111.289 324.207 123.121Z" stroke="black"/>
</g>
</svg>
