<svg width="416" height="300" viewBox="0 0 416 300" fill="none" xmlns="http://www.w3.org/2000/svg">
<g opacity="0.07">
<path d="M50.8882 -19.1042C105.681 -88.8768 221.691 -64.6687 272.846 -43.843C441.343 21.2145 242.352 259.262 116.159 185.601C-10.0328 111.94 63.6849 409.689 -12.3026 360.984C-88.2901 312.279 -136.165 140.276 -115.081 64.3128C-93.9973 -11.6507 -17.6033 68.1116 50.8882 -19.1042Z" stroke="#030303"/>
<path d="M158.166 114.106C187.057 77.3775 248.196 90.098 275.154 101.049C363.951 135.259 259.031 260.568 192.533 221.824C126.035 183.08 164.839 339.763 124.797 314.144C84.7556 288.525 59.5515 198.014 70.6767 158.033C81.8019 118.052 122.052 160.016 158.166 114.106Z" stroke="#030303"/>
<path d="M56.0907 -12.7565C109.588 -80.9606 222.892 -57.2662 272.857 -36.8935C437.432 26.7509 243.143 259.444 119.883 187.398C-3.37742 115.351 68.6849 406.476 -5.53808 358.84C-79.7611 311.204 -126.556 143.027 -105.982 68.7627C-85.4078 -5.5019 -10.7808 72.4986 56.0907 -12.7565Z" stroke="#030303"/>
<path d="M61.242 -6.42048C113.541 -73.0293 224.275 -49.9143 273.105 -30.0306C433.941 32.0844 244.007 259.338 123.552 189.01C3.09593 118.683 73.4713 402.941 0.93785 356.441C-71.5955 309.941 -117.299 145.731 -97.1768 73.2107C-77.0542 0.690272 -4.1317 76.8406 61.242 -6.42048Z" stroke="#030303"/>
<path d="M66.2681 -0.0364206C117.315 -65.0858 225.416 -42.499 273.085 -23.0745C430.099 37.6073 244.709 259.539 127.114 190.84C9.51884 122.142 78.2473 399.775 7.43593 354.352C-63.3754 308.929 -108.008 148.547 -88.3713 77.7208C-68.735 6.89457 2.45908 81.2753 66.2681 -0.0364206Z" stroke="#030303"/>
<path d="M71.4194 6.29982C121.268 -57.1543 226.799 -35.1468 273.333 -16.2113C426.609 42.941 245.574 259.432 130.783 192.453C15.9922 125.474 83.0336 396.24 13.9119 351.953C-55.2099 307.666 -98.7506 151.251 -79.566 82.169C-60.3814 13.087 9.10823 85.6175 71.4194 6.29982Z" stroke="#030303"/>
<path d="M76.4446 12.6834C125.042 -49.2112 227.939 -27.732 273.312 -9.25562C422.765 48.4634 246.275 259.633 134.344 194.283C22.4141 128.932 87.8087 393.073 20.409 349.864C-46.9907 306.654 -89.4598 154.066 -70.7615 86.6786C-52.0632 19.2908 15.698 90.0517 76.4446 12.6834Z" stroke="#030303"/>
<path d="M81.5969 19.0199C128.996 -41.2795 229.323 -20.3796 273.561 -2.39224C419.276 53.7973 247.14 259.526 138.014 195.896C28.8885 132.265 92.596 389.539 26.8859 347.465C-38.8242 305.391 -80.2018 156.771 -61.9552 91.1271C-43.7086 25.4835 22.3482 94.3941 81.5969 19.0199Z" stroke="#030303"/>
<path d="M86.6231 25.4037C132.77 -33.3362 230.463 -12.9646 273.542 4.5637C415.433 59.3199 247.842 259.727 141.577 197.725C35.3114 135.724 97.372 386.372 33.3839 345.376C-30.6041 304.379 -70.9101 159.586 -53.1498 95.6369C-35.3895 31.6875 28.9389 98.8285 86.6231 25.4037Z" stroke="#030303"/>
<path d="M91.8987 31.4372C136.785 -25.7879 231.852 -5.90813 273.774 11.1849C411.859 64.5837 248.842 259.82 145.422 199.371C42.0021 138.923 102.464 383.184 40.1885 343.216C-22.0875 303.249 -61.3501 162.144 -44.0872 99.8343C-26.8243 37.5245 35.7905 102.969 91.8987 31.4372Z" stroke="#030303"/>
<path d="M96.9196 37.8005C140.564 -17.8204 232.989 1.49461 273.746 18.1047C407.993 69.9943 249.49 259.758 148.946 201.014C48.4013 142.27 107.168 379.667 46.6242 340.826C-13.9197 301.985 -52.0825 164.847 -35.2948 104.286C-18.507 43.7248 42.3646 107.327 96.9196 37.8005Z" stroke="#030303"/>
<path d="M102.075 44.1575C144.512 -9.91286 234.375 8.85934 274.002 25.0042C404.525 75.4402 250.408 259.915 152.653 202.814C54.8974 145.714 112.026 376.483 53.1615 338.728C-5.70279 300.974 -42.8023 167.664 -26.4774 108.793C-10.1525 49.9212 49.0294 111.745 102.075 44.1575Z" stroke="#030303"/>
<path d="M107.097 50.5205C148.291 -1.94559 235.513 16.2618 273.974 31.9238C400.66 80.8507 251.056 259.852 156.177 204.457C61.2976 149.061 116.73 372.965 59.5982 336.338C2.466 299.71 -33.5337 170.366 -17.684 113.244C-1.83423 56.1212 55.6046 116.103 107.097 50.5205Z" stroke="#030303"/>
<path d="M112.253 56.8778C152.239 5.96218 236.899 23.6268 274.23 38.8236C397.193 86.2968 251.974 260.009 159.884 206.257C67.7937 152.505 121.588 369.781 66.1355 334.24C10.6829 298.699 -24.2535 173.184 -8.86662 117.751C6.5203 62.3179 62.2694 120.522 112.253 56.8778Z" stroke="#030303"/>
<path d="M117.279 63.2613C156.014 13.9051 238.039 31.0415 274.21 45.7791C393.35 91.8191 252.676 260.21 163.446 208.086C74.2166 155.963 126.364 366.614 72.6336 332.151C18.903 297.687 -14.9618 175.999 -0.0611823 122.26C14.8394 68.5216 68.8601 124.956 117.279 63.2613Z" stroke="#030303"/>
<path d="M122.43 69.598C159.967 21.8371 239.422 38.3941 274.458 52.6428C389.86 97.1533 253.54 260.103 167.115 209.7C80.69 159.296 131.15 363.08 79.1095 329.752C27.0685 296.425 -5.70477 178.704 8.74416 126.709C23.1931 74.7145 75.5093 129.299 122.43 69.598Z" stroke="#030303"/>
<path d="M127.456 75.9814C163.741 29.7801 240.563 45.8088 274.438 59.5983C386.017 102.676 254.242 260.304 170.677 211.529C87.1129 162.754 135.926 359.913 85.6076 327.663C35.2887 295.413 3.58696 181.519 17.5496 131.219C31.5122 80.9181 82.1001 133.733 127.456 75.9814Z" stroke="#030303"/>
<path d="M132.786 82.2816C167.828 37.6845 242.009 53.1484 274.719 66.455C382.46 108.023 255.198 260.179 174.509 213.109C93.8207 166.039 140.939 356.333 92.352 325.209C43.7651 294.086 13.1632 184.158 26.6506 135.607C40.1381 87.0553 88.9828 138.028 132.786 82.2816Z" stroke="#030303"/>
<path d="M137.811 88.6652C171.602 45.6275 243.148 60.5632 274.698 73.4107C378.616 113.545 255.899 260.379 178.071 214.939C100.243 169.498 145.714 353.165 98.8491 323.12C51.9842 293.074 22.4539 186.974 35.4551 140.117C48.4563 93.2591 95.5726 142.462 137.811 88.6652Z" stroke="#030303"/>
<path d="M142.962 95.0019C175.555 53.5595 244.532 67.9159 274.946 80.2743C375.126 118.88 256.763 260.273 181.74 216.552C106.716 172.83 150.5 349.631 105.325 320.721C60.1498 291.811 31.711 189.678 44.2604 144.565C56.8099 99.452 102.222 146.805 142.962 95.0019Z" stroke="#030303"/>
<path d="M147.988 101.386C179.329 61.5027 245.672 75.3308 274.926 87.2302C371.284 124.402 257.465 260.474 185.302 218.381C113.139 176.289 155.276 346.464 111.823 318.632C68.3699 290.8 41.0027 192.494 53.0659 149.075C65.1291 105.656 108.813 151.239 147.988 101.386Z" stroke="#030303"/>
<path d="M153.144 107.743C183.277 69.4107 247.058 82.696 275.182 94.1302C367.816 129.849 258.383 260.631 189.009 220.182C119.635 179.733 160.134 343.281 118.36 316.535C76.5868 289.789 50.2829 195.312 61.8832 153.582C73.4836 111.853 115.477 155.659 153.144 107.743Z" stroke="#030303"/>
</g>
</svg>
