<svg width="304" height="104" viewBox="0 0 304 104" fill="none" xmlns="http://www.w3.org/2000/svg">
<g opacity="0.07">
<path d="M130.399 52.9584C170.725 1.60705 256.106 19.4238 293.755 34.7511C417.766 82.6322 271.312 257.831 178.437 203.618C85.5617 149.404 139.817 368.542 83.8912 332.696C27.9658 296.85 -7.26943 170.26 8.24803 114.352C23.7655 58.444 79.9901 117.148 130.399 52.9584Z" stroke="#030303"/>
<path d="M134.228 57.6301C173.601 7.43318 256.991 24.8718 293.764 39.8657C414.888 86.7068 271.895 257.965 181.178 204.94C90.4609 151.915 143.497 366.177 88.8707 331.118C34.244 296.059 -0.196525 172.284 14.9458 117.627C30.088 62.9694 85.0121 120.376 134.228 57.6301Z" stroke="#030303"/>
<path d="M138.019 62.2932C176.51 13.2704 258.009 30.2826 293.946 44.9166C412.319 90.6321 272.531 257.886 183.878 206.127C95.2249 154.367 147.02 363.576 93.6366 329.353C40.2534 295.129 6.61624 174.274 21.4261 120.9C36.2359 67.5266 89.9055 123.572 138.019 62.2932Z" stroke="#030303"/>
<path d="M141.719 66.9919C179.288 19.1167 258.848 35.7402 293.932 50.0363C409.491 94.6969 273.048 258.034 186.5 207.474C99.9521 156.913 150.535 361.245 98.4191 327.815C46.3033 294.385 13.4548 176.346 27.9068 124.22C42.3587 72.0929 94.7562 126.836 141.719 66.9919Z" stroke="#030303"/>
<path d="M145.51 71.6551C182.197 24.9541 259.866 41.1512 294.114 55.0873C406.922 98.6223 273.684 257.956 189.2 208.66C104.716 159.365 154.057 358.644 103.185 326.049C52.3127 293.455 20.2676 178.336 34.3871 127.493C48.5066 76.6503 99.6497 130.031 145.51 71.6551Z" stroke="#030303"/>
<path d="M149.208 76.3533C184.974 30.8001 260.704 46.6083 294.099 60.2066C404.093 102.687 274.199 258.103 191.821 210.007C109.442 161.91 157.571 356.313 107.967 324.512C58.3616 292.71 27.1052 180.409 40.8668 130.812C54.6284 81.2163 104.499 133.295 149.208 76.3533Z" stroke="#030303"/>
<path d="M153 81.017C187.885 36.6377 261.723 52.0197 294.282 65.258C401.525 106.613 274.836 258.025 194.522 211.194C114.207 164.363 161.095 353.712 112.733 322.746C64.3721 291.781 33.9189 182.399 47.3481 134.087C60.7772 85.774 109.394 136.491 153 81.017Z" stroke="#030303"/>
<path d="M156.699 85.7153C190.663 42.4839 262.563 57.477 294.267 70.3775C398.697 110.677 275.353 258.173 197.144 212.541C118.934 166.909 164.61 351.381 117.516 321.209C70.4219 291.036 40.7575 184.471 53.8287 137.406C66.9 90.3401 114.244 139.755 156.699 85.7153Z" stroke="#030303"/>
<path d="M160.582 90.1559C193.618 48.0393 263.585 62.6705 294.439 75.2506C396.067 114.551 276.09 258.241 199.974 213.752C123.859 169.263 168.358 349.035 122.524 319.62C76.6903 290.204 47.7937 186.354 60.4989 140.495C73.2041 94.636 119.287 142.802 160.582 90.1559Z" stroke="#030303"/>
<path d="M164.277 94.8391C196.398 53.9032 264.422 68.1186 294.418 80.3434C393.221 118.533 276.566 258.196 202.567 214.961C128.569 171.727 171.82 346.446 127.261 317.86C82.7014 289.274 54.6143 188.343 66.9698 143.771C79.3252 99.1992 124.126 146.009 164.277 94.8391Z" stroke="#030303"/>
<path d="M168.071 99.5178C199.304 59.723 265.441 73.539 294.606 85.4213C390.669 122.541 277.241 258.311 205.295 216.286C133.349 174.261 175.395 344.103 132.072 316.316C88.7486 288.53 61.4441 190.416 73.4589 147.088C85.4738 103.76 129.031 149.261 168.071 99.5178Z" stroke="#030303"/>
<path d="M171.767 104.201C202.085 65.5867 266.279 78.987 294.586 90.5139C387.824 126.523 277.718 258.265 207.889 217.495C138.06 176.725 178.857 341.514 136.809 314.557C94.7607 287.6 68.2656 192.405 79.9307 150.364C91.5959 108.323 133.87 152.468 171.767 104.201Z" stroke="#030303"/>
<path d="M175.562 108.88C204.992 71.4067 267.299 84.4075 294.775 95.592C385.273 130.531 278.395 258.38 210.618 218.82C142.841 179.259 182.433 339.171 141.621 313.013C100.809 286.856 75.0964 194.479 86.4209 153.681C97.7454 112.883 138.776 155.721 175.562 108.88Z" stroke="#030303"/>
<path d="M179.262 113.578C207.77 77.2526 268.139 89.8646 294.76 100.711C382.445 134.596 278.911 258.528 213.24 220.166C147.569 181.805 185.948 336.84 146.404 311.475C106.859 286.111 81.935 196.551 92.9016 157C103.868 117.449 143.626 158.984 179.262 113.578Z" stroke="#030303"/>
<path d="M183.053 118.241C210.679 83.0904 269.157 95.276 294.942 105.763C379.876 138.522 279.547 258.45 215.94 221.354C152.333 184.258 189.471 334.239 151.169 309.71C112.868 285.182 88.7477 198.541 99.3819 160.274C110.016 122.007 148.52 162.18 183.053 118.241Z" stroke="#030303"/>
<path d="M186.752 122.939C213.457 88.9361 269.996 100.733 294.928 110.882C377.048 142.586 280.064 258.597 218.562 222.7C157.06 186.803 192.986 331.908 155.952 308.172C118.918 284.437 95.5863 200.613 105.863 163.593C116.139 126.573 153.37 165.444 186.752 122.939Z" stroke="#030303"/>
<path d="M190.674 127.576C216.465 94.7537 271.06 106.135 295.134 115.928C374.43 146.522 280.767 258.505 221.382 223.863C161.997 189.22 196.675 329.273 160.916 306.367C125.157 283.46 102.634 202.556 112.561 166.823C122.487 131.09 158.436 168.605 190.674 127.576Z" stroke="#030303"/>
<path d="M194.373 132.275C219.242 100.6 271.899 111.592 295.119 121.048C371.601 150.586 281.283 258.653 224.003 225.209C166.723 191.766 200.189 326.942 165.697 304.829C131.206 282.716 109.472 204.628 119.041 170.142C128.609 135.656 163.286 171.868 194.373 132.275Z" stroke="#030303"/>
<path d="M198.164 136.938C222.151 106.437 272.917 117.003 295.301 126.099C369.032 154.512 281.919 258.575 226.703 226.397C171.487 194.218 203.711 324.341 170.463 303.064C137.215 281.786 116.285 206.618 125.521 173.416C134.757 140.213 168.179 175.064 198.164 136.938Z" stroke="#030303"/>
</g>
</svg>
