<svg width="640" height="250" viewBox="0 0 640 250" fill="none" xmlns="http://www.w3.org/2000/svg">
<g opacity="0.07">
<path d="M375.577 159.263C277.226 196.75 182 119.392 146.682 76.0268C28.0216 -63.5842 375.117 -185.738 447.594 -58.4469C520.071 68.8441 645.151 -237.707 685.935 -157.093C726.719 -76.4791 659.531 103.129 589.404 162.326C519.277 221.522 498.517 112.404 375.577 159.263Z" stroke="#030303"/>
<path d="M360.36 -13.2955C308.543 6.41485 258.332 -34.3202 239.704 -57.1515C177.121 -130.656 359.997 -194.878 398.237 -127.867C436.476 -60.8557 502.286 -222.176 523.807 -179.738C545.328 -137.301 509.983 -42.7821 473.047 -11.6398C436.111 19.5025 425.132 -37.9334 360.36 -13.2955Z" stroke="#030303"/>
<path d="M374.765 150.997C278.686 187.672 185.714 112.071 151.238 69.6864C35.4073 -66.7671 374.478 -186.282 445.207 -61.8598C515.937 62.5621 638.249 -237.161 678.045 -158.363C717.841 -79.5649 652.133 96.0416 583.611 153.932C515.089 211.823 494.864 105.153 374.765 150.997Z" stroke="#030303"/>
<path d="M373.994 142.766C280.112 178.558 189.221 104.711 155.511 63.3129C42.2561 -69.9647 373.58 -186.596 442.752 -65.0777C511.925 56.4403 631.34 -236.22 670.263 -159.262C709.187 -82.3041 645.041 89.1655 578.098 145.682C511.155 202.198 491.347 98.0266 373.994 142.766Z" stroke="#030303"/>
<path d="M373.375 134.551C281.717 169.518 193.002 97.4075 160.102 56.9812C49.5673 -73.1679 373.04 -187.114 440.542 -68.4439C508.045 50.2258 624.683 -235.61 662.665 -160.455C700.648 -85.3002 637.991 82.1701 572.627 137.374C507.264 192.577 487.948 90.8428 373.375 134.551Z" stroke="#030303"/>
<path d="M372.605 126.32C283.143 160.404 196.51 90.0462 164.376 50.6068C56.417 -76.3664 372.142 -187.428 438.088 -71.6626C504.034 44.1031 617.775 -234.669 654.885 -161.355C691.995 -88.0402 630.9 75.2931 567.116 129.122C503.331 182.951 484.432 83.7156 372.605 126.32Z" stroke="#030303"/>
<path d="M371.986 118.106C284.749 151.365 200.291 82.7435 168.967 44.2757C63.7283 -79.5691 371.602 -187.946 435.878 -75.0283C500.155 37.8892 611.118 -234.058 647.287 -162.547C683.456 -91.0358 623.85 68.2982 561.645 120.814C499.44 173.331 481.033 76.5323 371.986 118.106Z" stroke="#030303"/>
<path d="M371.216 109.874C286.175 142.25 203.799 75.3817 173.241 37.9006C70.578 -82.7683 370.704 -188.261 433.424 -78.2477C496.143 31.7658 604.21 -233.119 639.507 -163.448C674.803 -93.7765 616.759 61.4206 556.133 112.562C495.507 163.704 477.518 69.4044 371.216 109.874Z" stroke="#030303"/>
<path d="M370.597 101.661C287.78 133.211 207.58 68.08 177.832 31.5705C77.8892 -85.97 370.164 -188.778 431.214 -81.6124C492.264 25.5529 597.554 -232.507 631.909 -164.639C666.264 -96.7711 609.708 54.4267 550.662 104.256C491.616 154.085 474.119 62.2221 370.597 101.661Z" stroke="#030303"/>
<path d="M369.509 93.6454C288.895 124.416 210.888 60.985 181.961 25.423C84.773 -89.0655 369.266 -189.34 428.611 -84.9465C487.957 19.447 590.58 -232.028 623.97 -165.914C657.361 -99.8005 602.231 47.5377 544.739 96.1093C487.246 144.681 470.276 55.1818 369.509 93.6454Z" stroke="#030303"/>
<path d="M368.881 85.4522C290.512 115.353 214.664 53.6954 186.536 19.129C92.0331 -92.1545 368.605 -189.592 426.316 -88.1229C484.027 13.3458 583.762 -231.064 616.234 -166.803C648.706 -102.541 595.129 40.6576 539.241 87.8614C483.354 135.065 466.842 48.0764 368.881 85.4522Z" stroke="#030303"/>
<path d="M368.121 77.1997C291.928 106.263 218.178 46.3211 190.827 12.7175C98.9349 -95.4667 367.829 -190.172 423.948 -91.5309C480.067 7.11037 577.016 -230.477 608.593 -168.007C640.17 -105.536 588.091 33.6658 533.757 79.5502C479.423 125.434 463.362 40.8713 368.121 77.1997Z" stroke="#030303"/>
<path d="M367.491 69.006C293.543 97.1986 221.952 39.0308 195.4 6.42285C106.193 -98.5564 367.166 -190.425 421.651 -94.708C476.135 1.00857 570.196 -229.513 600.855 -168.895C631.513 -108.278 580.987 26.7851 528.258 71.3017C475.529 115.818 459.927 33.7652 367.491 69.006Z" stroke="#030303"/>
<path d="M366.73 60.7544C294.958 88.1091 225.464 31.6574 199.689 0.012235C113.094 -101.868 366.389 -191.004 419.282 -98.1151C472.175 -5.22598 563.449 -228.925 593.213 -170.098C622.976 -111.271 573.948 19.7943 522.773 62.9913C471.597 106.188 456.446 26.561 366.73 60.7544Z" stroke="#030303"/>
<path d="M366.111 52.5395C296.563 79.0691 229.246 24.3543 204.281 -6.3193C120.405 -105.071 365.849 -191.522 417.072 -101.481C468.295 -11.4403 556.792 -228.315 585.615 -171.291C614.437 -114.267 566.897 12.7989 517.301 54.6834C467.706 96.5679 453.047 19.3774 366.111 52.5395Z" stroke="#030303"/>
<path d="M365.341 44.3082C297.989 69.9548 232.753 16.9929 208.554 -12.6939C127.255 -108.269 364.952 -191.837 414.618 -104.7C464.284 -17.5632 549.884 -227.375 577.834 -172.191C605.784 -117.008 559.807 5.92179 511.79 46.4316C463.773 86.9415 449.531 12.2499 365.341 44.3082Z" stroke="#030303"/>
<path d="M364.721 36.0942C299.594 60.9158 236.534 9.69074 213.145 -19.0245C134.565 -111.472 364.411 -192.354 412.407 -108.065C460.404 -23.7766 543.227 -226.763 570.235 -173.383C597.244 -120.003 552.755 -1.07258 506.318 38.1246C459.881 77.3219 446.131 5.06718 364.721 36.0942Z" stroke="#030303"/>
<path d="M363.757 27.8104C300.874 51.7619 239.973 2.3105 217.383 -25.4091C141.488 -114.651 363.413 -192.696 409.775 -111.332C456.137 -29.9684 536.072 -225.889 562.162 -174.362C588.252 -122.834 545.316 -8.04331 500.484 29.7861C455.651 67.6156 442.361 -2.1289 363.757 27.8104Z" stroke="#030303"/>
<path d="M363.138 19.5969C302.479 42.7233 243.754 -4.99122 221.974 -31.7393C148.8 -117.853 362.873 -193.213 407.565 -114.697C452.257 -36.1813 529.415 -225.277 554.564 -175.553C579.712 -125.829 538.266 -15.0373 495.012 21.4796C451.759 57.9964 438.962 -9.31121 363.138 19.5969Z" stroke="#030303"/>
<path d="M362.368 11.3657C303.906 33.6091 247.262 -12.3526 226.248 -38.1138C155.649 -121.052 361.975 -193.528 405.111 -117.916C448.246 -42.3042 522.507 -224.337 546.783 -176.453C571.06 -128.569 531.175 -21.9143 489.501 13.2279C447.827 48.3701 435.446 -16.4386 362.368 11.3657Z" stroke="#030303"/>
<path d="M361.75 3.15064C305.512 24.569 251.044 -19.6557 230.84 -44.4454C162.961 -124.255 361.436 -194.046 402.902 -121.282C444.368 -48.5186 515.851 -223.727 539.186 -177.646C562.521 -131.565 524.125 -28.9097 484.031 4.91984C443.936 38.7494 432.048 -23.6223 361.75 3.15064Z" stroke="#030303"/>
<path d="M360.989 -5.10186C306.926 15.4786 254.557 -27.0301 235.13 -50.857C169.862 -127.567 360.659 -194.626 400.533 -124.69C440.407 -54.7541 509.105 -223.14 531.544 -178.85C553.984 -134.56 517.086 -35.9016 478.546 -3.39142C440.005 29.1187 428.567 -30.8274 360.989 -5.10186Z" stroke="#030303"/>
</g>
</svg>
