<svg width="148" height="24" viewBox="0 0 148 24" fill="none" xmlns="http://www.w3.org/2000/svg">
<path d="M85.0462 0.512207H89.1415C89.1415 0.892285 89.1006 10.1501 89.1699 14.4422C89.1765 15.4858 89.3995 16.5171 89.8251 17.4736C90.8395 19.6366 93.4227 20.678 95.8641 20.1279C97.0442 19.8944 98.1045 19.2646 98.8623 18.347C99.6201 17.4293 100.028 16.2813 100.016 15.1004C100.054 10.6043 100.016 0.92316 100.016 0.524542H104.127C104.127 0.873719 104.127 10.1037 104.127 14.4298C104.127 20.5111 99.6097 24.4386 93.4164 23.7433C89.1258 23.2612 86.1898 20.8541 85.2825 17.0132C85.114 16.2726 85.0285 15.5162 85.0273 14.7574C85.0273 10.2397 85.0368 0.793403 85.0462 0.512207Z" fill="white"/>
<path d="M29.0977 14.5289V23.3417H25.0654V0.561777C25.2084 0.519923 25.355 0.490953 25.5033 0.475246C28.7512 0.475246 32.0022 0.422696 35.2469 0.493767C37.9908 0.555568 40.3912 1.42079 41.9537 3.82177C44.5779 7.86667 42.0892 13.5184 37.2599 14.2168C35.0359 14.5258 32.7488 14.4392 30.4933 14.5258C30.0428 14.5412 29.6175 14.5289 29.0977 14.5289ZM29.1197 10.9722C31.4226 10.9722 33.6561 11.1081 35.8612 10.9289C37.6096 10.7868 38.6964 9.3499 38.7248 7.64727C38.7689 5.83032 37.7514 4.3162 35.962 4.10607C33.9049 3.86505 31.81 3.95465 29.7309 3.9083C29.525 3.92176 29.3206 3.95175 29.1197 3.99793V10.9722Z" fill="white"/>
<path d="M17.4742 23.3416C16.8221 21.537 16.1889 19.7788 15.5337 17.968H6.08303L4.26855 23.3324H0L8.44885 0.540039H12.9505C15.8266 8.08907 18.7185 15.6814 21.6419 23.3416H17.4742ZM7.14154 14.6895H14.3618C13.1017 11.244 11.8984 7.89129 10.6414 4.42733C9.46009 7.87584 8.32287 11.2193 7.14154 14.6802V14.6895Z" fill="white"/>
<path d="M134.828 0.500244H139.295L147.999 23.3358H143.848C143.217 21.5838 142.553 19.7792 141.885 17.9529H132.434L130.607 23.3544H126.342L134.828 0.500244ZM140.738 14.7145L136.999 4.41228C135.84 7.82989 134.687 11.2351 133.505 14.7145H140.738Z" fill="white"/>
<path d="M113.871 19.7019H125.18V23.3543H109.911V0.543457H113.884L113.871 19.7019Z" fill="white"/>
<path d="M76.8424 15.7835L76.7636 16.0338C75.9414 18.6913 73.4275 20.3413 70.1986 20.3413C65.7379 20.3413 62.8523 17.0597 62.8523 11.9982C62.8523 6.93663 65.7379 3.63646 70.1986 3.63646C73.4118 3.63646 75.8186 5.30508 76.6345 8.0985L76.7101 8.35191H80.7612L80.6825 7.93785C80.2867 5.64907 79.0299 3.58923 77.1605 2.16559C75.1859 0.711713 72.771 -0.0499768 70.3025 0.00254511C66.9665 0.00254511 64.1061 1.15825 62.0301 3.34292C59.9541 5.5276 58.8799 8.52805 58.8799 12.0322C58.8799 19.1888 63.413 24 70.1576 24C75.513 24 79.7689 20.8759 80.7896 16.2285L80.8841 15.802L76.8424 15.7835Z" fill="white"/>
<path d="M46.9103 23.4096H42.793L53.0753 0.567871H57.1895C53.7463 8.21887 50.3409 15.7895 46.9103 23.4096Z" fill="white"/>
</svg>
